<svg width="238" height="52" viewBox="0 0 238 52" fill="none" xmlns="http://www.w3.org/2000/svg">
<mask id="mask0_2007_139" style="mask-type:luminance" maskUnits="userSpaceOnUse" x="0" y="0" width="238" height="39">
<path d="M237.333 0H0V38.6667H237.333V0Z" fill="white"/>
</mask>
<g mask="url(#mask0_2007_139)">
<mask id="mask1_2007_139" style="mask-type:luminance" maskUnits="userSpaceOnUse" x="0" y="8" width="23" height="23">
<path d="M0.859375 8H22.6667V30.6667H0.859375V8Z" fill="white"/>
</mask>
<g mask="url(#mask1_2007_139)">
<path d="M17.7691 24.4172H6.0191L3.47743 30.0422H1.16493L10.8108 8.95886H12.9983L22.6441 30.0422H20.2899L17.7691 24.4172ZM16.9566 22.6047L11.8941 11.2714L6.8316 22.6047H16.9566Z" fill="white"/>
</g>
<path d="M26.1353 8.95886H34.7186C36.9374 8.95886 38.9061 9.40678 40.6145 10.2922C42.3228 11.1828 43.6457 12.4276 44.5936 14.0214C45.5363 15.6203 46.0103 17.4484 46.0103 19.5005C46.0103 21.5422 45.5363 23.3651 44.5936 24.9589C43.6457 26.5578 42.3228 27.8078 40.6145 28.7089C38.9061 29.5995 36.9374 30.0422 34.7186 30.0422H26.1353V8.95886ZM34.5936 28.1047C36.4374 28.1047 38.0572 27.7453 39.4478 27.0214C40.8332 26.287 41.9113 25.2714 42.677 23.9797C43.4374 22.6776 43.8228 21.1828 43.8228 19.5005C43.8228 17.8078 43.4374 16.313 42.677 15.0214C41.9113 13.7297 40.8332 12.7193 39.4478 11.9797C38.0572 11.2453 36.4374 10.8755 34.5936 10.8755H28.3645V28.1047H34.5936Z" fill="white"/>
<path d="M64.2428 24.4172H52.4928L49.9511 30.0422H47.6386L57.2845 8.95886H59.472L69.1178 30.0422H66.7636L64.2428 24.4172ZM63.4303 22.6047L58.3678 11.2714L53.3053 22.6047H63.4303Z" fill="white"/>
<path d="M81.7548 30.2297C79.6715 30.2297 77.7861 29.7714 76.109 28.8547C74.4423 27.9276 73.1298 26.6412 72.1715 25.0005C71.2132 23.3651 70.734 21.5318 70.734 19.5005C70.734 17.4745 71.2132 15.6412 72.1715 14.0005C73.1298 12.3651 74.4475 11.0839 76.1298 10.1672C77.8069 9.24011 79.6975 8.77136 81.7965 8.77136C83.3642 8.77136 84.8069 9.03699 86.1298 9.56303C87.4632 10.0787 88.5882 10.8443 89.5048 11.8547L88.0882 13.2714C86.4475 11.6047 84.3694 10.7714 81.859 10.7714C80.1923 10.7714 78.6715 11.1568 77.2965 11.9172C75.9319 12.6672 74.8642 13.7089 74.0882 15.0422C73.3225 16.3651 72.9423 17.8495 72.9423 19.5005C72.9423 21.1412 73.3225 22.6255 74.0882 23.9589C74.8642 25.2818 75.9319 26.3234 77.2965 27.0839C78.6715 27.8495 80.1923 28.2297 81.859 28.2297C84.385 28.2297 86.4632 27.3912 88.0882 25.7089L89.5048 27.1255C88.5882 28.1255 87.4527 28.8964 86.109 29.438C84.7757 29.9693 83.3225 30.2297 81.7548 30.2297Z" fill="white"/>
<path d="M111.302 30.2297C109.218 30.2297 107.333 29.7714 105.656 28.8547C103.989 27.9276 102.677 26.6412 101.718 25.0005C100.76 23.3651 100.281 21.5318 100.281 19.5005C100.281 17.4745 100.76 15.6412 101.718 14.0005C102.677 12.3651 103.994 11.0839 105.677 10.1672C107.354 9.24011 109.244 8.77136 111.343 8.77136C112.911 8.77136 114.354 9.03699 115.677 9.56303C117.01 10.0787 118.135 10.8443 119.052 11.8547L117.635 13.2714C115.994 11.6047 113.916 10.7714 111.406 10.7714C109.739 10.7714 108.218 11.1568 106.843 11.9172C105.479 12.6672 104.411 13.7089 103.635 15.0422C102.869 16.3651 102.489 17.8495 102.489 19.5005C102.489 21.1412 102.869 22.6255 103.635 23.9589C104.411 25.2818 105.479 26.3234 106.843 27.0839C108.218 27.8495 109.739 28.2297 111.406 28.2297C113.932 28.2297 116.01 27.3912 117.635 25.7089L119.052 27.1255C118.135 28.1255 117 28.8964 115.656 29.438C114.322 29.9693 112.869 30.2297 111.302 30.2297Z" fill="white"/>
<path d="M141.436 8.95886V30.0422H139.228V20.313H126.041V30.0422H123.811V8.95886H126.041V18.3547H139.228V8.95886H141.436Z" fill="white"/>
<path d="M156.798 30.2297C154.059 30.2297 151.928 29.4484 150.402 27.8755C148.871 26.3078 148.111 24.0318 148.111 21.0422V8.95886H150.34V20.938C150.34 23.3964 150.887 25.2297 151.986 26.438C153.095 27.6359 154.699 28.2297 156.798 28.2297C158.892 28.2297 160.496 27.6359 161.611 26.438C162.72 25.2297 163.277 23.3964 163.277 20.938V8.95886H165.444V21.0422C165.444 24.0318 164.678 26.3078 163.152 27.8755C161.637 29.4484 159.517 30.2297 156.798 30.2297Z" fill="white"/>
<path d="M186.548 30.0422L181.736 23.2714C181.194 23.3287 180.632 23.3547 180.048 23.3547H174.382V30.0422H172.152V8.95886H180.048C182.725 8.95886 184.83 9.6047 186.361 10.8964C187.887 12.1776 188.652 13.938 188.652 16.188C188.652 17.8287 188.236 19.2193 187.402 20.3547C186.569 21.4953 185.382 22.313 183.84 22.813L188.986 30.0422H186.548ZM179.986 21.4589C182.069 21.4589 183.658 21.0005 184.757 20.0839C185.866 19.1568 186.423 17.8547 186.423 16.188C186.423 14.4797 185.866 13.1672 184.757 12.2505C183.658 11.3339 182.069 10.8755 179.986 10.8755H174.382V21.4589H179.986Z" fill="white"/>
<path d="M203.074 30.2297C200.991 30.2297 199.106 29.7714 197.429 28.8547C195.762 27.9276 194.449 26.6412 193.491 25.0005C192.533 23.3651 192.054 21.5318 192.054 19.5005C192.054 17.4745 192.533 15.6412 193.491 14.0005C194.449 12.3651 195.767 11.0839 197.449 10.1672C199.126 9.24011 201.017 8.77136 203.116 8.77136C204.684 8.77136 206.126 9.03699 207.449 9.56303C208.783 10.0787 209.908 10.8443 210.824 11.8547L209.408 13.2714C207.767 11.6047 205.689 10.7714 203.179 10.7714C201.512 10.7714 199.991 11.1568 198.616 11.9172C197.251 12.6672 196.184 13.7089 195.408 15.0422C194.642 16.3651 194.262 17.8495 194.262 19.5005C194.262 21.1412 194.642 22.6255 195.408 23.9589C196.184 25.2818 197.251 26.3234 198.616 27.0839C199.991 27.8495 201.512 28.2297 203.179 28.2297C205.705 28.2297 207.783 27.3912 209.408 25.7089L210.824 27.1255C209.908 28.1255 208.772 28.8964 207.429 29.438C206.095 29.9693 204.642 30.2297 203.074 30.2297Z" fill="white"/>
<path d="M233.209 8.95886V30.0422H231.001V20.313H217.813V30.0422H215.584V8.95886H217.813V18.3547H231.001V8.95886H233.209Z" fill="white"/>
</g>
<mask id="mask2_2007_139" style="mask-type:luminance" maskUnits="userSpaceOnUse" x="1" y="32" width="163" height="20">
<path d="M164 32H1.33333V52H164V32Z" fill="white"/>
</mask>
<g mask="url(#mask2_2007_139)">
<mask id="mask3_2007_139" style="mask-type:luminance" maskUnits="userSpaceOnUse" x="1" y="37" width="10" height="11">
<path d="M1.48958 37.3334H10.6667V48H1.48958V37.3334Z" fill="white"/>
</mask>
<g mask="url(#mask3_2007_139)">
<path d="M5.68113 46.955C4.99884 46.955 4.33738 46.8717 3.70196 46.705C3.06133 46.5383 2.54571 46.33 2.16029 46.08L2.95196 44.3925C3.31133 44.6321 3.74883 44.8196 4.26446 44.955C4.77488 45.0956 5.27488 45.1633 5.76446 45.1633C6.76446 45.1633 7.26446 44.9237 7.26446 44.4342C7.26446 44.1998 7.12384 44.0331 6.84779 43.9342C6.58217 43.8404 6.1655 43.7571 5.59779 43.6842C4.94154 43.5904 4.39467 43.4758 3.95196 43.3508C3.51967 43.2154 3.14467 42.9758 2.82696 42.6425C2.51967 42.3092 2.36863 41.8404 2.36863 41.2258C2.36863 40.7154 2.51446 40.2623 2.80613 39.8717C3.10821 39.4706 3.5405 39.1581 4.09779 38.9342C4.6655 38.7154 5.33738 38.6008 6.11863 38.6008C6.68634 38.6008 7.25404 38.6633 7.82696 38.7883C8.39467 38.9133 8.86863 39.0904 9.24363 39.3092L8.45196 40.9758C7.74363 40.5904 6.96238 40.3925 6.11863 40.3925C5.61863 40.3925 5.24363 40.4654 4.99363 40.6008C4.74363 40.7415 4.61863 40.9237 4.61863 41.1425C4.61863 41.3925 4.74883 41.5696 5.01446 41.6633C5.2905 41.7623 5.72279 41.8612 6.30613 41.955C6.97279 42.0696 7.51446 42.1842 7.93113 42.3092C8.35821 42.4342 8.728 42.6633 9.03529 42.9967C9.353 43.3196 9.51446 43.7779 9.51446 44.3717C9.51446 44.8717 9.35821 45.3248 9.05613 45.7258C8.74884 46.1165 8.30613 46.4237 7.72279 46.6425C7.14988 46.8508 6.47279 46.955 5.68113 46.955Z" fill="white"/>
</g>
<path d="M10.9505 38.7258H13.3046V46.83H10.9505V38.7258ZM12.1171 37.6008C11.6848 37.6008 11.3307 37.4758 11.0546 37.2258C10.789 36.9758 10.6588 36.6633 10.6588 36.2883C10.6588 35.9133 10.789 35.6008 11.0546 35.3508C11.3307 35.1008 11.6848 34.9758 12.1171 34.9758C12.5442 34.9758 12.8932 35.1008 13.1588 35.3508C13.4348 35.5904 13.5755 35.8873 13.5755 36.2467C13.5755 36.6373 13.4348 36.9654 13.1588 37.2258C12.8932 37.4758 12.5442 37.6008 12.1171 37.6008Z" fill="white"/>
<path d="M25.8595 38.6008C26.8699 38.6008 27.6772 38.9029 28.2761 39.4967C28.8699 40.0956 29.172 40.9915 29.172 42.1842V46.83H26.8178V42.5592C26.8178 41.9081 26.6824 41.429 26.422 41.1217C26.1563 40.804 25.7813 40.6425 25.297 40.6425C24.7397 40.6425 24.3022 40.8248 23.9845 41.1842C23.6615 41.5331 23.5053 42.0592 23.5053 42.7675V46.83H21.1511V42.5592C21.1511 41.2831 20.6355 40.6425 19.6095 40.6425C19.0678 40.6425 18.6355 40.8248 18.3178 41.1842C17.9949 41.5331 17.8386 42.0592 17.8386 42.7675V46.83H15.4845V38.7258H17.7345V39.6633C18.0261 39.3196 18.3855 39.054 18.8178 38.8717C19.2605 38.6946 19.7449 38.6008 20.2761 38.6008C20.8438 38.6008 21.3595 38.7206 21.8178 38.955C22.2865 39.179 22.6615 39.5071 22.9428 39.9342C23.2761 39.5071 23.6928 39.179 24.1928 38.955C24.7032 38.7206 25.2605 38.6008 25.8595 38.6008Z" fill="white"/>
<path d="M36.0773 38.6008C36.8273 38.6008 37.5044 38.7779 38.119 39.1217C38.744 39.4706 39.2284 39.9654 39.5773 40.6008C39.9367 41.2258 40.119 41.955 40.119 42.7883C40.119 43.6217 39.9367 44.3508 39.5773 44.9758C39.2284 45.6008 38.744 46.0904 38.119 46.4342C37.5044 46.7831 36.8273 46.955 36.0773 46.955C35.0461 46.955 34.2336 46.6321 33.6398 45.9758V49.7467H31.2857V38.7258H33.5357V39.6633C34.119 38.955 34.9627 38.6008 36.0773 38.6008ZM35.6607 45.0175C36.27 45.0175 36.77 44.8196 37.1607 44.4133C37.5461 44.0123 37.744 43.4706 37.744 42.7883C37.744 42.0956 37.5461 41.5487 37.1607 41.1425C36.77 40.7415 36.27 40.5383 35.6607 40.5383C35.0617 40.5383 34.5669 40.7415 34.1815 41.1425C33.7909 41.5487 33.5982 42.0956 33.5982 42.7883C33.5982 43.4706 33.7909 44.0123 34.1815 44.4133C34.5669 44.8196 35.0617 45.0175 35.6607 45.0175Z" fill="white"/>
<path d="M41.6792 35.6633H44.0334V46.83H41.6792V35.6633Z" fill="white"/>
<path d="M54.1507 42.8092C54.1507 42.8404 54.1351 43.0487 54.109 43.4342H47.984C48.0934 43.9342 48.3486 44.33 48.7549 44.6217C49.1715 44.9133 49.6819 45.0592 50.2965 45.0592C50.7132 45.0592 51.0778 44.9967 51.4007 44.8717C51.734 44.7467 52.0465 44.554 52.3382 44.2883L53.5882 45.6425C52.8226 46.5175 51.7028 46.955 50.234 46.955C49.3174 46.955 48.5049 46.7779 47.7965 46.4133C47.0986 46.054 46.5569 45.5592 46.1715 44.9342C45.7965 44.2987 45.609 43.58 45.609 42.7883C45.609 41.9862 45.7965 41.2675 46.1715 40.6425C46.5465 40.0071 47.0569 39.5071 47.7132 39.1425C48.3799 38.7831 49.1194 38.6008 49.9424 38.6008C50.734 38.6008 51.4476 38.7779 52.0882 39.1217C52.7236 39.455 53.2236 39.9446 53.5882 40.58C53.9632 41.2206 54.1507 41.9654 54.1507 42.8092ZM49.9424 40.3925C49.4111 40.3925 48.9684 40.5487 48.609 40.8508C48.2444 41.1425 48.0257 41.554 47.9424 42.08H51.9424C51.859 41.5696 51.6351 41.1581 51.2757 40.8508C50.9111 40.5487 50.4684 40.3925 49.9424 40.3925Z" fill="white"/>
<path d="M58.4472 46.955C57.7649 46.955 57.1034 46.8717 56.468 46.705C55.8274 46.5383 55.3118 46.33 54.9263 46.08L55.718 44.3925C56.0774 44.6321 56.5149 44.8196 57.0305 44.955C57.5409 45.0956 58.0409 45.1633 58.5305 45.1633C59.5305 45.1633 60.0305 44.9237 60.0305 44.4342C60.0305 44.1998 59.8899 44.0331 59.6138 43.9342C59.3482 43.8404 58.9316 43.7571 58.3638 43.6842C57.7076 43.5904 57.1607 43.4758 56.718 43.3508C56.2857 43.2154 55.9107 42.9758 55.593 42.6425C55.2857 42.3092 55.1347 41.8404 55.1347 41.2258C55.1347 40.7154 55.2805 40.2623 55.5722 39.8717C55.8743 39.4706 56.3066 39.1581 56.8638 38.9342C57.4316 38.7154 58.1034 38.6008 58.8847 38.6008C59.4524 38.6008 60.0201 38.6633 60.593 38.7883C61.1607 38.9133 61.6347 39.0904 62.0097 39.3092L61.218 40.9758C60.5097 40.5904 59.7284 40.3925 58.8847 40.3925C58.3847 40.3925 58.0097 40.4654 57.7597 40.6008C57.5097 40.7415 57.3847 40.9237 57.3847 41.1425C57.3847 41.3925 57.5149 41.5696 57.7805 41.6633C58.0566 41.7623 58.4888 41.8612 59.0722 41.955C59.7388 42.0696 60.2805 42.1842 60.6972 42.3092C61.1243 42.4342 61.4941 42.6633 61.8013 42.9967C62.1191 43.3196 62.2805 43.7779 62.2805 44.3717C62.2805 44.8717 62.1243 45.3248 61.8222 45.7258C61.5149 46.1165 61.0722 46.4237 60.4888 46.6425C59.9159 46.8508 59.2388 46.955 58.4472 46.955Z" fill="white"/>
<path d="M74.0915 38.6008C75.1019 38.6008 75.9092 38.9029 76.5082 39.4967C77.1019 40.0956 77.404 40.9915 77.404 42.1842V46.83H75.0498V42.5592C75.0498 41.9081 74.9144 41.429 74.654 41.1217C74.3884 40.804 74.0134 40.6425 73.529 40.6425C72.9717 40.6425 72.5342 40.8248 72.2165 41.1842C71.8936 41.5331 71.7373 42.0592 71.7373 42.7675V46.83H69.3832V42.5592C69.3832 41.2831 68.8675 40.6425 67.8415 40.6425C67.2998 40.6425 66.8675 40.8248 66.5498 41.1842C66.2269 41.5331 66.0707 42.0592 66.0707 42.7675V46.83H63.7165V38.7258H65.9665V39.6633C66.2582 39.3196 66.6175 39.054 67.0498 38.8717C67.4925 38.6946 67.9769 38.6008 68.5082 38.6008C69.0759 38.6008 69.5915 38.7206 70.0498 38.955C70.5186 39.179 70.8936 39.5071 71.1748 39.9342C71.5082 39.5071 71.9248 39.179 72.4248 38.955C72.9353 38.7206 73.4925 38.6008 74.0915 38.6008Z" fill="white"/>
<path d="M87.4552 42.8092C87.4552 42.8404 87.4396 43.0487 87.4135 43.4342H81.2885C81.3979 43.9342 81.6531 44.33 82.0594 44.6217C82.476 44.9133 82.9865 45.0592 83.601 45.0592C84.0177 45.0592 84.3823 44.9967 84.7052 44.8717C85.0385 44.7467 85.351 44.554 85.6427 44.2883L86.8927 45.6425C86.1271 46.5175 85.0073 46.955 83.5385 46.955C82.6219 46.955 81.8094 46.7779 81.101 46.4133C80.4031 46.054 79.8615 45.5592 79.476 44.9342C79.101 44.2987 78.9135 43.58 78.9135 42.7883C78.9135 41.9862 79.101 41.2675 79.476 40.6425C79.851 40.0071 80.3615 39.5071 81.0177 39.1425C81.6844 38.7831 82.424 38.6008 83.2469 38.6008C84.0385 38.6008 84.7521 38.7779 85.3927 39.1217C86.0281 39.455 86.5281 39.9446 86.8927 40.58C87.2677 41.2206 87.4552 41.9654 87.4552 42.8092ZM83.2469 40.3925C82.7156 40.3925 82.2729 40.5487 81.9135 40.8508C81.549 41.1425 81.3302 41.554 81.2469 42.08H85.2469C85.1635 41.5696 84.9396 41.1581 84.5802 40.8508C84.2156 40.5487 83.7729 40.3925 83.2469 40.3925Z" fill="white"/>
<path d="M93.9392 38.6008C94.9496 38.6008 95.7621 38.9081 96.3767 39.5175C97.0017 40.1165 97.3142 41.0071 97.3142 42.1842V46.83H94.96V42.5592C94.96 41.9081 94.8142 41.429 94.5225 41.1217C94.2413 40.804 93.8402 40.6425 93.3142 40.6425C92.7152 40.6425 92.2413 40.83 91.8975 41.205C91.5486 41.5696 91.3767 42.1112 91.3767 42.83V46.83H89.0225V38.7258H91.2725V39.6842C91.5746 39.3404 91.96 39.0748 92.4184 38.8925C92.8871 38.6998 93.3975 38.6008 93.9392 38.6008Z" fill="white"/>
<path d="M104.66 46.4342C104.421 46.6009 104.139 46.7363 103.806 46.83C103.473 46.9134 103.119 46.955 102.744 46.955C101.785 46.955 101.041 46.7155 100.514 46.2259C99.9832 45.7259 99.7228 44.9967 99.7228 44.0384V40.705H98.4728V38.9134H99.7228V36.9342H102.077V38.9134H104.077V40.705H102.077V44.0175C102.077 44.3509 102.16 44.6165 102.327 44.8092C102.504 44.9915 102.754 45.08 103.077 45.08C103.452 45.08 103.77 44.9863 104.035 44.7884L104.66 46.4342Z" fill="white"/>
<path d="M113.921 42.8092C113.921 42.8404 113.905 43.0487 113.879 43.4342H107.754C107.864 43.9342 108.119 44.33 108.525 44.6217C108.942 44.9133 109.452 45.0592 110.067 45.0592C110.484 45.0592 110.848 44.9967 111.171 44.8717C111.504 44.7467 111.817 44.554 112.109 44.2883L113.359 45.6425C112.593 46.5175 111.473 46.955 110.004 46.955C109.088 46.955 108.275 46.7779 107.567 46.4133C106.869 46.054 106.327 45.5592 105.942 44.9342C105.567 44.2987 105.379 43.58 105.379 42.7883C105.379 41.9862 105.567 41.2675 105.942 40.6425C106.317 40.0071 106.827 39.5071 107.484 39.1425C108.15 38.7831 108.89 38.6008 109.713 38.6008C110.504 38.6008 111.218 38.7779 111.859 39.1217C112.494 39.455 112.994 39.9446 113.359 40.58C113.734 41.2206 113.921 41.9654 113.921 42.8092ZM109.713 40.3925C109.181 40.3925 108.739 40.5487 108.379 40.8508C108.015 41.1425 107.796 41.554 107.713 42.08H111.713C111.629 41.5696 111.405 41.1581 111.046 40.8508C110.681 40.5487 110.239 40.3925 109.713 40.3925Z" fill="white"/>
<path d="M123.123 46.9133C122.342 46.9133 121.644 46.7415 121.019 46.3925C120.404 46.0487 119.92 45.5696 119.561 44.955C119.212 44.3456 119.04 43.6529 119.04 42.8717C119.04 42.0956 119.212 41.4029 119.561 40.7883C119.92 40.179 120.404 39.705 121.019 39.3717C121.644 39.0279 122.342 38.8508 123.123 38.8508C123.8 38.8508 124.415 38.9862 124.956 39.2467C125.498 39.5123 125.92 39.9029 126.227 40.4133L125.436 40.955C125.17 40.5696 124.837 40.2779 124.436 40.08C124.029 39.8873 123.592 39.7883 123.123 39.7883C122.55 39.7883 122.04 39.9237 121.581 40.1842C121.123 40.4342 120.758 40.7987 120.498 41.2675C120.248 41.7258 120.123 42.2623 120.123 42.8717C120.123 43.4862 120.248 44.0279 120.498 44.4967C120.758 44.955 121.123 45.3196 121.581 45.58C122.04 45.83 122.55 45.955 123.123 45.955C123.592 45.955 124.029 45.8665 124.436 45.6842C124.837 45.4915 125.17 45.1946 125.436 44.7883L126.227 45.33C125.92 45.8456 125.498 46.2415 124.956 46.5175C124.415 46.7831 123.8 46.9133 123.123 46.9133Z" fill="white"/>
<path d="M135.229 43.205H128.604C128.656 44.0279 128.968 44.6946 129.541 45.205C130.109 45.705 130.833 45.955 131.708 45.955C132.208 45.955 132.656 45.8717 133.062 45.705C133.479 45.5279 133.838 45.2623 134.145 44.9133L134.749 45.6008C134.385 46.0331 133.942 46.3612 133.416 46.58C132.885 46.804 132.312 46.9133 131.687 46.9133C130.864 46.9133 130.145 46.7415 129.52 46.3925C128.895 46.0487 128.4 45.5696 128.041 44.955C127.692 44.3456 127.52 43.6529 127.52 42.8717C127.52 42.0956 127.687 41.4029 128.02 40.7883C128.364 40.179 128.833 39.705 129.416 39.3717C129.999 39.0279 130.656 38.8508 131.395 38.8508C132.13 38.8508 132.791 39.0279 133.374 39.3717C133.958 39.705 134.406 40.179 134.729 40.7883C135.062 41.3873 135.229 42.08 135.229 42.8717V43.205ZM131.395 39.7675C130.63 39.7675 129.989 40.0123 129.479 40.4967C128.963 40.9862 128.671 41.6165 128.604 42.3925H134.208C134.135 41.6165 133.843 40.9862 133.333 40.4967C132.817 40.0123 132.171 39.7675 131.395 39.7675ZM132.479 35.7883H133.916L131.479 37.6633H130.416L132.479 35.7883Z" fill="white"/>
<path d="M137.431 35.6633H138.493V46.83H137.431V35.6633Z" fill="white"/>
<path d="M148.608 38.9133V46.83H147.587V45.3925C147.306 45.8665 146.92 46.2415 146.42 46.5175C145.931 46.7831 145.368 46.9133 144.733 46.9133C143.702 46.9133 142.889 46.6217 142.295 46.0383C141.696 45.455 141.399 44.6112 141.399 43.4967V38.9133H142.462V43.3925C142.462 44.2258 142.67 44.8612 143.087 45.2883C143.504 45.7206 144.092 45.9342 144.858 45.9342C145.691 45.9342 146.342 45.6842 146.816 45.1842C147.301 44.6737 147.545 43.9654 147.545 43.0592V38.9133H148.608Z" fill="white"/>
<path d="M151.62 35.6633H152.683V46.83H151.62V35.6633Z" fill="white"/>
<path d="M158.443 38.8508C159.469 38.8508 160.261 39.1112 160.818 39.6217C161.37 40.1373 161.651 40.9029 161.651 41.9133V46.83H160.61V45.6008C160.37 46.0071 160.016 46.3248 159.547 46.5592C159.089 46.7987 158.537 46.9133 157.901 46.9133C157.011 46.9133 156.302 46.705 155.776 46.2883C155.261 45.8612 155.006 45.2987 155.006 44.6008C155.006 43.9342 155.245 43.3925 155.735 42.9758C156.219 42.5592 156.995 42.3508 158.068 42.3508H160.568V41.8717C160.568 41.1946 160.37 40.679 159.985 40.33C159.61 39.9706 159.058 39.7883 158.339 39.7883C157.823 39.7883 157.339 39.8717 156.881 40.0383C156.422 40.1946 156.026 40.4133 155.693 40.705L155.214 39.9133C155.615 39.58 156.094 39.3248 156.651 39.1425C157.219 38.9498 157.818 38.8508 158.443 38.8508ZM158.068 46.0592C158.662 46.0592 159.177 45.9237 159.61 45.6425C160.037 45.3665 160.36 44.9706 160.568 44.455V43.1633H158.089C156.724 43.1633 156.047 43.6373 156.047 44.58C156.047 45.0383 156.219 45.4029 156.568 45.6633C156.927 45.929 157.427 46.0592 158.068 46.0592Z" fill="white"/>
</g>
</svg>
