<svg width="103" height="10" viewBox="0 0 103 10" fill="none" xmlns="http://www.w3.org/2000/svg">
<path d="M-1.10567e-05 9.13635V2.5909H1.98152V3.7926H2.05397C2.19033 3.39488 2.42044 3.08095 2.74431 2.85084C3.06817 2.62073 3.45453 2.50567 3.9034 2.50567C4.35794 2.50567 4.74715 2.62215 5.07101 2.8551C5.39488 3.08806 5.60084 3.40056 5.68891 3.7926H5.75709C5.87925 3.4034 6.11789 3.09232 6.473 2.85936C6.82811 2.62357 7.24715 2.50567 7.7301 2.50567C8.34942 2.50567 8.85226 2.70453 9.23863 3.10226C9.62499 3.49715 9.81817 4.03976 9.81817 4.7301V9.13635H7.73436V5.20738C7.73436 4.88067 7.65056 4.63209 7.48294 4.46164C7.31533 4.28834 7.098 4.20169 6.83096 4.20169C6.54402 4.20169 6.31817 4.29544 6.1534 4.48294C5.99147 4.6676 5.9105 4.91618 5.9105 5.22868V9.13635H3.90766V5.18607C3.90766 4.88209 3.82527 4.64203 3.6605 4.4659C3.49573 4.28976 3.2784 4.20169 3.00851 4.20169C2.82669 4.20169 2.66618 4.24573 2.52698 4.3338C2.38777 4.41902 2.2784 4.54118 2.19885 4.70027C2.12215 4.85936 2.0838 5.04686 2.0838 5.26277V9.13635H-1.10567e-05ZM12.9545 9.24715C12.5369 9.24715 12.1662 9.17755 11.8423 9.03834C11.5213 8.8963 11.267 8.68323 11.0795 8.39914C10.8949 8.1122 10.8025 7.75283 10.8025 7.32101C10.8025 6.95738 10.8665 6.65056 10.9943 6.40056C11.1221 6.15056 11.2983 5.94743 11.5227 5.79118C11.7471 5.63493 12.0057 5.51703 12.2983 5.43749C12.5909 5.3551 12.9034 5.2997 13.2358 5.2713C13.6079 5.2372 13.9077 5.20169 14.1349 5.16476C14.3622 5.12499 14.527 5.06959 14.6293 4.99857C14.7344 4.9247 14.7869 4.82101 14.7869 4.68749V4.66618C14.7869 4.44743 14.7116 4.2784 14.5611 4.15908C14.4105 4.03976 14.2074 3.9801 13.9517 3.9801C13.6761 3.9801 13.4545 4.03976 13.2869 4.15908C13.1193 4.2784 13.0128 4.44317 12.9673 4.6534L11.0454 4.58522C11.1023 4.18749 11.2486 3.83238 11.4844 3.51988C11.723 3.20453 12.0497 2.95738 12.4645 2.7784C12.8821 2.59658 13.3835 2.50567 13.9687 2.50567C14.3864 2.50567 14.7713 2.55539 15.1236 2.65482C15.4758 2.75141 15.7827 2.89345 16.044 3.08095C16.3054 3.26561 16.5071 3.49289 16.6491 3.76277C16.794 4.03266 16.8665 4.3409 16.8665 4.68749V9.13635H14.9062V8.22442H14.8551C14.7386 8.44601 14.5895 8.63351 14.4077 8.78692C14.2287 8.94033 14.017 9.05539 13.7727 9.13209C13.5312 9.2088 13.2585 9.24715 12.9545 9.24715ZM13.598 7.88351C13.8224 7.88351 14.0241 7.83806 14.2031 7.74715C14.3849 7.65624 14.5298 7.53124 14.6378 7.37215C14.7457 7.21022 14.7997 7.02272 14.7997 6.80965V6.18749C14.74 6.21874 14.6676 6.24715 14.5824 6.27272C14.5 6.29828 14.4091 6.32243 14.3096 6.34516C14.2102 6.36789 14.1079 6.38777 14.0028 6.40482C13.8977 6.42186 13.7969 6.43749 13.7003 6.45169C13.5043 6.48294 13.3366 6.53124 13.1974 6.59658C13.0611 6.66192 12.956 6.74715 12.8821 6.85226C12.8111 6.95453 12.7756 7.07669 12.7756 7.21874C12.7756 7.43465 12.8523 7.59942 13.0057 7.71306C13.1619 7.82669 13.3594 7.88351 13.598 7.88351ZM20.0199 7.41902L20.0284 4.93465H20.3182L22.1591 2.5909H24.5199L21.7841 5.94885H21.2344L20.0199 7.41902ZM18.1406 9.13635V0.40908H20.2244V9.13635H18.1406ZM22.206 9.13635L20.4929 6.4176L21.865 4.93891L24.6136 9.13635H22.206ZM28.0557 9.25993C27.3711 9.25993 26.7802 9.12499 26.283 8.8551C25.7887 8.58238 25.408 8.19459 25.141 7.69175C24.8768 7.18607 24.7447 6.58522 24.7447 5.88919C24.7447 5.21306 24.8782 4.62215 25.1452 4.11647C25.4123 3.60794 25.7887 3.21306 26.2745 2.93181C26.7603 2.64772 27.3327 2.50567 27.9918 2.50567C28.4577 2.50567 28.8839 2.57811 29.2702 2.723C29.6566 2.86789 29.9904 3.08238 30.2717 3.36647C30.5529 3.65056 30.7717 4.00141 30.9279 4.41902C31.0842 4.8338 31.1623 5.30965 31.1623 5.84658V6.36647H25.4734V5.15624H29.2234C29.2205 4.93465 29.168 4.7372 29.0657 4.56391C28.9634 4.39061 28.8228 4.25567 28.6438 4.15908C28.4677 4.05965 28.2645 4.00993 28.0344 4.00993C27.8015 4.00993 27.5927 4.06249 27.408 4.1676C27.2234 4.26988 27.077 4.4105 26.9691 4.58948C26.8611 4.76561 26.8043 4.9659 26.7986 5.19033V6.42186C26.7986 6.68891 26.8512 6.92328 26.9563 7.12499C27.0614 7.32385 27.2106 7.47868 27.4038 7.58948C27.5969 7.70027 27.827 7.75567 28.0941 7.75567C28.2788 7.75567 28.4464 7.7301 28.5969 7.67897C28.7475 7.62783 28.8768 7.55255 28.9847 7.45311C29.0927 7.35368 29.1736 7.23152 29.2276 7.08664L31.141 7.14203C31.0614 7.57101 30.8867 7.94459 30.6168 8.26277C30.3498 8.57811 29.9989 8.82385 29.5643 8.99999C29.1296 9.17328 28.6268 9.25993 28.0557 9.25993ZM37.7876 9.28976C37.3729 9.28976 36.9964 9.21164 36.6584 9.05539C36.3203 8.8963 36.0518 8.6676 35.853 8.36931C35.6541 8.06817 35.5547 7.70453 35.5547 7.2784C35.5547 6.9034 35.6285 6.59942 35.7763 6.36647C35.924 6.13067 36.1214 5.94601 36.3686 5.81249C36.6158 5.67897 36.8885 5.57953 37.1868 5.51419C37.4879 5.44601 37.7905 5.39203 38.0944 5.35226C38.4922 5.30113 38.8146 5.26277 39.0618 5.2372C39.3118 5.2088 39.4936 5.16192 39.6072 5.09658C39.7237 5.03124 39.7819 4.9176 39.7819 4.75567V4.72158C39.7819 4.30113 39.6669 3.97442 39.4368 3.74147C39.2095 3.50851 38.8643 3.39203 38.4013 3.39203C37.9212 3.39203 37.5447 3.49715 37.272 3.70738C36.9993 3.9176 36.8075 4.14203 36.6967 4.38067L35.7422 4.03976C35.9126 3.64203 36.1399 3.33238 36.424 3.11078C36.7109 2.88635 37.0234 2.7301 37.3615 2.64203C37.7024 2.55113 38.0376 2.50567 38.3672 2.50567C38.5774 2.50567 38.8189 2.53124 39.0916 2.58237C39.3672 2.63067 39.6328 2.73152 39.8885 2.88493C40.147 3.03834 40.3615 3.26988 40.5319 3.57953C40.7024 3.88919 40.7876 4.30397 40.7876 4.82385V9.13635H39.7819V8.24999H39.7308C39.6626 8.39203 39.549 8.54402 39.3899 8.70595C39.2308 8.86789 39.0192 9.00567 38.755 9.11931C38.4908 9.23294 38.1683 9.28976 37.7876 9.28976ZM37.941 8.38635C38.3388 8.38635 38.674 8.30823 38.9467 8.15198C39.2223 7.99573 39.4297 7.79402 39.5689 7.54686C39.7109 7.2997 39.7819 7.03976 39.7819 6.76703V5.84658C39.7393 5.89772 39.6456 5.94459 39.5007 5.9872C39.3587 6.02698 39.1939 6.06249 39.0064 6.09374C38.8217 6.12215 38.6413 6.14772 38.4652 6.17044C38.2919 6.19033 38.1513 6.20738 38.0433 6.22158C37.7819 6.25567 37.5376 6.31107 37.3104 6.38777C37.0859 6.46164 36.9041 6.57385 36.7649 6.72442C36.6285 6.87215 36.5604 7.07385 36.5604 7.32953C36.5604 7.67897 36.6896 7.94317 36.9481 8.12215C37.2095 8.29828 37.5405 8.38635 37.941 8.38635ZM48.4698 9.27272C47.9243 9.27272 47.4428 9.13493 47.0252 8.85936C46.6076 8.58095 46.2809 8.18891 46.0451 7.68323C45.8093 7.1747 45.6914 6.57385 45.6914 5.88067C45.6914 5.19317 45.8093 4.59658 46.0451 4.0909C46.2809 3.58522 46.609 3.19459 47.0295 2.91902C47.4499 2.64345 47.9357 2.50567 48.4868 2.50567C48.913 2.50567 49.2496 2.57669 49.4968 2.71874C49.7468 2.85794 49.9371 3.01703 50.0678 3.19601C50.2013 3.37215 50.305 3.51703 50.3789 3.63067H50.4641V0.40908H51.4698V9.13635H50.4982V8.13067H50.3789C50.305 8.24999 50.1999 8.40056 50.0636 8.58238C49.9272 8.76135 49.7326 8.92186 49.4797 9.06391C49.2269 9.20311 48.8903 9.27272 48.4698 9.27272ZM48.6062 8.36931C49.0096 8.36931 49.3505 8.26419 49.6289 8.05397C49.9073 7.8409 50.119 7.54686 50.2638 7.17186C50.4087 6.79402 50.4812 6.35794 50.4812 5.86363C50.4812 5.37499 50.4101 4.94743 50.2681 4.58095C50.1261 4.21164 49.9158 3.9247 49.6374 3.72016C49.359 3.51277 49.0153 3.40908 48.6062 3.40908C48.18 3.40908 47.8249 3.51845 47.5408 3.7372C47.2596 3.95311 47.0479 4.24715 46.9059 4.61931C46.7667 4.98863 46.6971 5.4034 46.6971 5.86363C46.6971 6.32953 46.7681 6.75283 46.9101 7.13351C47.055 7.51135 47.2681 7.81249 47.5493 8.03692C47.8334 8.25851 48.1857 8.36931 48.6062 8.36931ZM53.4513 9.13635V2.5909H54.457V9.13635H53.4513ZM53.9627 1.49999C53.7667 1.49999 53.5976 1.43323 53.4556 1.2997C53.3164 1.16618 53.2468 1.00567 53.2468 0.818171C53.2468 0.630671 53.3164 0.470159 53.4556 0.336636C53.5976 0.203114 53.7667 0.136353 53.9627 0.136353C54.1587 0.136353 54.3263 0.203114 54.4655 0.336636C54.6076 0.470159 54.6786 0.630671 54.6786 0.818171C54.6786 1.00567 54.6076 1.16618 54.4655 1.2997C54.3263 1.43323 54.1587 1.49999 53.9627 1.49999ZM59.2138 2.5909V3.44317H55.6854V2.5909H59.2138ZM56.7422 9.13635V1.68749C56.7422 1.31249 56.8302 0.999988 57.0064 0.749988C57.1825 0.499988 57.4112 0.312488 57.6925 0.187488C57.9737 0.0624883 58.2706 -1.16825e-05 58.5831 -1.16825e-05C58.8302 -1.16825e-05 59.0319 0.0198748 59.1882 0.0596478C59.3444 0.0994203 59.4609 0.136352 59.5376 0.170443L59.2479 1.03976C59.1967 1.02272 59.1257 1.00141 59.0348 0.975841C58.9467 0.950273 58.8302 0.937488 58.6854 0.937488C58.353 0.937488 58.1129 1.0213 57.9652 1.18891C57.8203 1.35652 57.7479 1.60226 57.7479 1.92612V9.13635H56.7422ZM63.538 2.5909V3.44317H60.0096V2.5909H63.538ZM61.0664 9.13635V1.68749C61.0664 1.31249 61.1545 0.999988 61.3306 0.749988C61.5067 0.499988 61.7354 0.312488 62.0167 0.187488C62.2979 0.0624883 62.5948 -1.16825e-05 62.9073 -1.16825e-05C63.1545 -1.16825e-05 63.3562 0.0198748 63.5124 0.0596478C63.6687 0.0994203 63.7851 0.136352 63.8618 0.170443L63.5721 1.03976C63.5209 1.02272 63.4499 1.00141 63.359 0.975841C63.2709 0.950273 63.1545 0.937488 63.0096 0.937488C62.6772 0.937488 62.4371 1.0213 62.2894 1.18891C62.1445 1.35652 62.0721 1.60226 62.0721 1.92612V9.13635H61.0664ZM67.4222 9.27272C66.7915 9.27272 66.2475 9.13351 65.7901 8.8551C65.3356 8.57385 64.9847 8.18181 64.7376 7.67897C64.4932 7.17328 64.3711 6.58522 64.3711 5.91476C64.3711 5.24431 64.4932 4.6534 64.7376 4.14203C64.9847 3.62783 65.3285 3.22726 65.7688 2.94033C66.212 2.65056 66.729 2.50567 67.3199 2.50567C67.6609 2.50567 67.9975 2.56249 68.3299 2.67612C68.6623 2.78976 68.9648 2.97442 69.2376 3.2301C69.5103 3.48294 69.7276 3.81817 69.8895 4.23578C70.0515 4.6534 70.1324 5.1676 70.1324 5.7784V6.20453H65.087V5.33522H69.1097C69.1097 4.9659 69.0359 4.63635 68.8881 4.34658C68.7432 4.05681 68.5359 3.82811 68.266 3.6605C67.9989 3.49289 67.6836 3.40908 67.3199 3.40908C66.9194 3.40908 66.5728 3.50851 66.2802 3.70738C65.9904 3.9034 65.7674 4.15908 65.6111 4.47442C65.4549 4.78976 65.3768 5.12783 65.3768 5.48863V6.06817C65.3768 6.56249 65.462 6.98152 65.6324 7.32527C65.8057 7.66618 66.0458 7.92613 66.3526 8.1051C66.6594 8.28124 67.016 8.36931 67.4222 8.36931C67.6864 8.36931 67.9251 8.33238 68.1381 8.25851C68.354 8.18181 68.5401 8.06817 68.6964 7.9176C68.8526 7.76419 68.9734 7.57385 69.0586 7.34658L70.0302 7.61931C69.9279 7.94885 69.756 8.23863 69.5145 8.48863C69.2731 8.73578 68.9748 8.92897 68.6197 9.06817C68.2645 9.20453 67.8654 9.27272 67.4222 9.27272ZM71.6623 9.13635V2.5909H72.6339V3.57953H72.702C72.8214 3.25567 73.0373 2.99289 73.3498 2.79118C73.6623 2.58948 74.0145 2.48862 74.4066 2.48862C74.4805 2.48862 74.5728 2.49005 74.6836 2.49289C74.7944 2.49573 74.8782 2.49999 74.935 2.50567V3.5284C74.9009 3.51988 74.8228 3.50709 74.7006 3.49005C74.5813 3.47016 74.4549 3.46022 74.3214 3.46022C74.0032 3.46022 73.7191 3.52698 73.4691 3.6605C73.2219 3.79118 73.0259 3.973 72.881 4.20595C72.739 4.43607 72.668 4.69885 72.668 4.99431V9.13635H71.6623ZM78.6722 9.27272C78.0415 9.27272 77.4975 9.13351 77.0401 8.8551C76.5856 8.57385 76.2347 8.18181 75.9876 7.67897C75.7432 7.17328 75.6211 6.58522 75.6211 5.91476C75.6211 5.24431 75.7432 4.6534 75.9876 4.14203C76.2347 3.62783 76.5785 3.22726 77.0188 2.94033C77.462 2.65056 77.979 2.50567 78.5699 2.50567C78.9109 2.50567 79.2475 2.56249 79.5799 2.67612C79.9123 2.78976 80.2148 2.97442 80.4876 3.2301C80.7603 3.48294 80.9776 3.81817 81.1395 4.23578C81.3015 4.6534 81.3824 5.1676 81.3824 5.7784V6.20453H76.337V5.33522H80.3597C80.3597 4.9659 80.2859 4.63635 80.1381 4.34658C79.9932 4.05681 79.7859 3.82811 79.516 3.6605C79.2489 3.49289 78.9336 3.40908 78.5699 3.40908C78.1694 3.40908 77.8228 3.50851 77.5302 3.70738C77.2404 3.9034 77.0174 4.15908 76.8611 4.47442C76.7049 4.78976 76.6268 5.12783 76.6268 5.48863V6.06817C76.6268 6.56249 76.712 6.98152 76.8824 7.32527C77.0557 7.66618 77.2958 7.92613 77.6026 8.1051C77.9094 8.28124 78.266 8.36931 78.6722 8.36931C78.9364 8.36931 79.1751 8.33238 79.3881 8.25851C79.604 8.18181 79.7901 8.06817 79.9464 7.9176C80.1026 7.76419 80.2234 7.57385 80.3086 7.34658L81.2802 7.61931C81.1779 7.94885 81.006 8.23863 80.7645 8.48863C80.5231 8.73578 80.2248 8.92897 79.8697 9.06817C79.5145 9.20453 79.1154 9.27272 78.6722 9.27272ZM83.918 5.19885V9.13635H82.9123V2.5909H83.8839V3.61363H83.9691C84.1225 3.28124 84.3555 3.01419 84.668 2.81249C84.9805 2.60794 85.3839 2.50567 85.8782 2.50567C86.3214 2.50567 86.7092 2.59658 87.0415 2.7784C87.3739 2.95738 87.6324 3.2301 87.8171 3.59658C88.0018 3.96022 88.0941 4.42044 88.0941 4.97726V9.13635H87.0884V5.04544C87.0884 4.53124 86.9549 4.13067 86.6878 3.84374C86.4208 3.55397 86.0543 3.40908 85.5884 3.40908C85.2674 3.40908 84.9805 3.47868 84.7276 3.61789C84.4776 3.75709 84.2802 3.96022 84.1353 4.22726C83.9904 4.49431 83.918 4.81817 83.918 5.19885ZM92.5909 9.27272C91.9773 9.27272 91.4489 9.12783 91.0057 8.83806C90.5625 8.54828 90.2216 8.14914 89.9829 7.64061C89.7443 7.13209 89.625 6.55113 89.625 5.89772C89.625 5.23294 89.7471 4.6463 89.9915 4.13777C90.2386 3.62641 90.5824 3.22726 91.0227 2.94033C91.4659 2.65056 91.9829 2.50567 92.5739 2.50567C93.0341 2.50567 93.4489 2.5909 93.8182 2.76135C94.1875 2.93181 94.49 3.17044 94.7258 3.47726C94.9616 3.78408 95.1079 4.14203 95.1648 4.55113H94.1591C94.0824 4.25283 93.9119 3.98863 93.6477 3.75851C93.3864 3.52556 93.0341 3.40908 92.5909 3.40908C92.1989 3.40908 91.8551 3.51135 91.5596 3.7159C91.267 3.9176 91.0383 4.20311 90.8736 4.57243C90.7116 4.93891 90.6307 5.36931 90.6307 5.86363C90.6307 6.36931 90.7102 6.80965 90.8693 7.18465C91.0312 7.55965 91.2585 7.85084 91.5511 8.05823C91.8466 8.26561 92.1932 8.36931 92.5909 8.36931C92.8523 8.36931 93.0895 8.32385 93.3025 8.23294C93.5156 8.14203 93.696 8.01135 93.8437 7.8409C93.9915 7.67044 94.0966 7.4659 94.1591 7.22726H95.1648C95.1079 7.61363 94.9673 7.96164 94.7429 8.2713C94.5213 8.57811 94.2273 8.82243 93.8608 9.00425C93.4971 9.18323 93.0739 9.27272 92.5909 9.27272ZM99.3793 9.27272C98.7486 9.27272 98.2045 9.13351 97.7471 8.8551C97.2926 8.57385 96.9418 8.18181 96.6946 7.67897C96.4503 7.17328 96.3281 6.58522 96.3281 5.91476C96.3281 5.24431 96.4503 4.6534 96.6946 4.14203C96.9418 3.62783 97.2855 3.22726 97.7258 2.94033C98.169 2.65056 98.6861 2.50567 99.277 2.50567C99.6179 2.50567 99.9545 2.56249 100.287 2.67612C100.619 2.78976 100.922 2.97442 101.195 3.2301C101.467 3.48294 101.685 3.81817 101.847 4.23578C102.009 4.6534 102.089 5.1676 102.089 5.7784V6.20453H97.044V5.33522H101.067C101.067 4.9659 100.993 4.63635 100.845 4.34658C100.7 4.05681 100.493 3.82811 100.223 3.6605C99.956 3.49289 99.6406 3.40908 99.277 3.40908C98.8764 3.40908 98.5298 3.50851 98.2372 3.70738C97.9474 3.9034 97.7244 4.15908 97.5682 4.47442C97.4119 4.78976 97.3338 5.12783 97.3338 5.48863V6.06817C97.3338 6.56249 97.419 6.98152 97.5895 7.32527C97.7628 7.66618 98.0028 7.92613 98.3096 8.1051C98.6165 8.28124 98.973 8.36931 99.3793 8.36931C99.6435 8.36931 99.8821 8.33238 100.095 8.25851C100.311 8.18181 100.497 8.06817 100.653 7.9176C100.81 7.76419 100.93 7.57385 101.016 7.34658L101.987 7.61931C101.885 7.94885 101.713 8.23863 101.472 8.48863C101.23 8.73578 100.932 8.92897 100.577 9.06817C100.222 9.20453 99.8224 9.27272 99.3793 9.27272Z" fill="white"/>
</svg>
